# xmcd
#
# Track frame offsets:
#	150
#	16673
#	32838
#	49928
#	70027
#	79653
#	95487
#	111208
#	131386
#	151682
#	167796
#
# Disc length: 2386 seconds
# Revision: 0
# Processed by: cddbd v1.5.2PL0 Copyright (c) Steve Scherf et al.
# Submitted via: dBpowerAMP V12.0
#
DISCID=7d09500b
DTITLE=Horseshoes and Hand Grenades - The Ode
DYEAR=2018
DGENRE=Country
TTITLE0=The Ode
TTITLE1=Next Riverbend
TTITLE2=Steer True
TTITLE3=Stay Awhile
TTITLE4=AD BC
TTITLE5=Home Again
TTITLE6=Foggy Halo
TTITLE7=American Dream
TTITLE8=River Time
TTITLE9=Millenial Girl
TTITLE10=Eat The Cake
EXTD=
EXTT0=
EXTT1=
EXTT2=
EXTT3=
EXTT4=
EXTT5=
EXTT6=
EXTT7=
EXTT8=
EXTT9=
EXTT10=
PLAYORDER=
